<?xml version="1.0" encoding="utf-8"?>
<!-- Generator: Adobe Illustrator 16.0.0, SVG Export Plug-In . SVG Version: 6.00 Build 0)  -->
<!DOCTYPE svg PUBLIC "-//W3C//DTD SVG 1.1//EN" "http://www.w3.org/Graphics/SVG/1.1/DTD/svg11.dtd">
<svg version="1.1" id="图层_1" xmlns="http://www.w3.org/2000/svg" xmlns:xlink="http://www.w3.org/1999/xlink" x="0px" y="0px"
	 width="841.891px" height="1190.55px" viewBox="0 0 841.891 1190.55" enable-background="new 0 0 841.891 1190.55"
	 xml:space="preserve">
<g>
	<g>
		<path d="M294.399,499.908h33.732v10.747h-18.315c-1.447,0-3.143,0.427-5.187,1.308c-3.092,1.347-5.406,3.405-6.884,6.122
			c-1.445,2.694-2.178,5.251-2.178,7.599l0.056,43.139c0,4.98,2.1,9.106,6.241,12.264c2.502,1.897,6.287,2.819,11.57,2.819h0.001
			l69.523-0.057c5.135,0,9.226-2.009,12.166-5.98c1.861-2.576,2.806-6.238,2.806-10.881l0.11-41.64
			c0-4.604-1.887-8.443-5.604-11.409c-2.696-2.18-6.578-3.284-11.539-3.284h-17.425v-10.747h35.959V487.61H294.399V499.908z
			 M363.475,523.006l16.593-0.053c1.643,0,2.929,0.458,3.93,1.396c1.177,1.113,1.747,2.733,1.747,4.952v15.478H368.21
			c-1.469,0-2.596-0.442-3.444-1.354c-0.868-0.929-1.29-2.07-1.29-3.492V523.006L363.475,523.006z M340.374,499.908h10.804v10.743
			l-10.804-0.047V499.908z M337.123,540.433c2.057-4.869,3.146-10.744,3.244-17.476l10.811,0.047v17.708
			c0,2.856,0.032,3.496,0.063,3.745c0.238,1.865,0.915,3.803,2.019,5.771c2.591,4.507,7.152,6.792,13.558,6.792h18.921l-0.049,7.071
			c0,3.407-0.409,4.813-0.766,5.417c-0.82,1.487-2.446,2.21-4.968,2.21l-64.736-0.111h-0.021l-2.764,0.111
			c-1.196,0-2.281-0.563-3.299-1.705c-0.854-1.01-1.268-2.056-1.268-3.188l0.05-8.088c6.513-0.476,11.838-1.783,15.839-3.894
			C329.985,551.557,334.483,546.708,337.123,540.433z M328.243,524.792c0,1.704-0.198,3.547-0.592,5.479
			c-0.573,2.829-1.217,4.952-1.918,6.32c-0.616,1.232-1.714,2.645-3.264,4.193c-1.553,1.553-2.985,2.671-4.255,3.322
			c-1.936,0.982-5.411,1.85-10.345,2.577l0.053-18.44c0-1.487,0.526-2.752,1.61-3.869c0.927-0.956,2.11-1.421,3.621-1.421
			l15.033,0.052C328.224,523.76,328.243,524.358,328.243,524.792z"/>
	</g>
	<g>
		<rect x="409.929" y="527.577" width="21.538" height="12.298"/>
	</g>
	<g>
		<path d="M455.402,487.215l-12.297,0.066v6.729h-11.639v-4.676h-21.538v12.298h21.538v4.676h7.14l-2.459,55.348
			c-0.146,3.556-0.455,6.378-0.92,8.385c-0.037,0.16-0.095,0.306-0.151,0.453h-25.146v12.187h23.327l5.315,0.24
			c2.481-1.162,4.485-3.061,5.956-5.642c2.027-3.55,3.199-9.286,3.582-17.542l1.406-32.442h3.532l1.465-0.055
			c0.584,0,1.043,0.233,1.464,0.76c0.044,0.058,0.431,0.659,0.431,3.862v38.908c0,0.564-0.072,1.544-0.525,1.738
			c-0.211,0.081-0.797,0.225-2.313,0.269h-1.725v11.118l6.565,0.065c4.287,0,7.271-1.322,8.877-3.943
			c0.955-1.619,1.421-4.407,1.421-8.524l-0.058-45.587c0-3.601-0.871-6.146-2.592-7.563c-1.87-1.537-4.732-2.303-8.755-2.343
			l-7.419-0.049l0.461-9.535l18.473-0.111v-12.292h-13.416V487.215L455.402,487.215z"/>
	</g>
	<g>
		<path d="M486.197,487.771l-11.611,0.067l-0.131,0.843c-0.711,4.623-2.27,8.452-4.632,11.38l-0.222,0.275v13.512l1.507-0.886
			c0.931-0.547,1.727-1.02,2.39-1.422v10.854h26.216c1.729,0,1.729,0.628,1.729,0.996c-0.021,0.321-0.522,1.964-6.046,9.611
			c-0.806,1.118-1.968,2.761-3.493,4.928H472.83v12.242h17.979v13.194c0,3.652-0.673,6.098-2.004,7.27
			c-0.582,0.52-1.962,1.139-5.234,1.139h-4.951v12.31l4.691,0.21c0.463,0.018,0.917,0.026,1.364,0.026
			c6.007,0,10.647-1.602,13.797-4.759c3.354-3.362,5.044-8.531,5.023-15.362l-0.051-14.026h11.185v-12.242h-8.287
			c2.724-3.992,4.558-6.805,5.588-8.566c1.902-3.224,2.867-6.203,2.867-8.858c0-6.942-4.963-10.463-14.75-10.463h-24.2
			c1.238-0.917,2.632-2.34,4.146-4.234h34.859v-12.298h-29.601L486.197,487.771z"/>
	</g>
	<g>
		<path d="M702.665,489.56c-2.08-1.387-5.229-2.061-9.628-2.061h-68.745c-2.659,0-4.906,0.319-6.682,0.949
			c-1.691,0.604-3.371,1.731-4.996,3.356c-2.888,2.929-4.352,7.229-4.352,12.781v62.065c0,3.369,0.377,6.091,1.117,8.075
			c0.533,1.482,1.571,3.003,3.184,4.654c2.928,2.928,7.08,4.412,12.341,4.412h68.634c6.3,0,11.093-2.377,14.242-7.063
			c1.465-2.156,2.178-5.728,2.178-10.914V503.64C709.957,497.404,707.499,492.664,702.665,489.56z M697.659,564.926
			c0,2.335-0.459,4.042-1.377,5.086c-0.835,0.985-2.488,1.484-4.915,1.484h-64.068c-2.545,0-4.302-0.435-5.204-1.276
			c-1.019-0.985-1.533-2.768-1.533-5.294v-58.225c0-2.644,0.328-3.803,0.602-4.309c0.365-0.67,0.987-1.3,1.848-1.874
			c0.405-0.27,1.633-0.723,5.291-0.723h62.231c2.784,0,4.753,0.572,5.861,1.71c0.577,0.578,1.266,1.949,1.266,5.194L697.659,564.926
			L697.659,564.926z"/>
	</g>
	<g>
		<polygon points="625.407,516.44 652.738,516.44 652.738,527.076 626.854,527.076 626.854,539.374 652.738,539.374 
			652.738,555.131 625.407,555.131 625.407,567.429 692.367,567.429 692.367,555.131 686.635,555.131 686.635,546.058 
			674.28,546.058 674.28,555.131 665.036,555.131 665.036,539.374 691.143,539.374 691.143,527.076 665.036,527.076 665.036,516.44 
			692.367,516.44 692.367,504.143 625.407,504.143 		"/>
	</g>
	<g>
		<path d="M824.836,569.408c-0.58-0.936-0.962-2.472-1.136-4.579c-0.263-2.709-0.429-4.29-0.502-4.802l-3.104-27.72H807.67
			l3.911,34.402c1.086,9.355,6.058,15.224,14.774,17.442l1.246,0.316v-12.814l-0.481-0.292
			C826.027,570.7,825.254,570.034,824.836,569.408z"/>
	</g>
	<g>
		<path d="M761.532,513.049v12.298h27.053v40.414c0,1.809-0.418,3.271-1.231,4.334c-0.921,1.167-2.012,1.735-3.334,1.735h-6.622
			v12.187h9.183c3.907,0,7.394-1.604,10.357-4.767c2.618-2.777,3.946-6.566,3.946-11.262v-42.642h26.886v-12.298H761.532
			L761.532,513.049z"/>
	</g>
	<g>
		<rect x="762.367" y="487.722" width="64.512" height="12.298"/>
	</g>
	<g>
		<path d="M746.223,487.722h-14.139c-2.714,0-5.086,0.998-7.062,2.973c-1.962,2.003-2.957,4.805-2.957,8.325v85.164h12.298v-81.88
			c0-1.279,0.211-1.636,0.234-1.668c0.396-0.509,1.363-0.616,2.104-0.616h5.9c1.558,0,2.006,0.353,2.086,0.438
			c0.354,0.403,0.532,1.081,0.532,2.013v21.041c0,1.204-0.389,2.006-2.284,2.006h-4.729v12.298h5.008
			c1.042,0,2.006,0.305,2.006,2.508v22.433c0,1.724-0.642,2.396-2.284,2.396H739.1v12.354h8.57c2.643,0,4.942-0.981,6.845-2.923
			c1.994-2.078,3.006-4.652,3.006-7.651V537.43c0-1.275-0.081-2.35-0.237-3.177c-0.186-1.068-0.813-2.036-1.869-2.888
			c1.398-1.724,2.106-3.854,2.106-6.349v-27.554c0-2.372-1.012-4.627-2.999-6.696C752.626,488.746,749.833,487.722,746.223,487.722z
			"/>
	</g>
	<g>
		<path d="M767.203,532.309l-3.661,33.015c-0.335,3.179-1.386,5.138-3.213,5.988l-0.578,0.271v12.935l1.279-0.37
			c3.628-1.055,6.229-2.307,7.95-3.826c2.49-2.183,4.363-4.92,5.568-8.146c0.588-1.607,1.079-4.232,1.502-8.028l3.46-31.834h-12.308
			V532.309z"/>
	</g>
</g>
<g>
	<circle cx="563.001" cy="530.55" r="12.334"/>
</g>
<g>
	<g>
		<path d="M320.619,619.24l-8.4-14.912h4.285l4.2,7.896c0.799,1.43,1.429,2.73,2.438,4.494h0.168
			c0.84-1.764,1.428-3.064,2.185-4.494l4.117-7.896h4.075l-8.401,15.123l8.989,15.711h-4.285l-4.537-8.318
			c-0.798-1.555-1.638-3.107-2.646-4.957h-0.168c-0.882,1.85-1.681,3.402-2.479,4.957l-4.453,8.318h-4.074L320.619,619.24z"/>
	</g>
	<g>
		<path d="M344.095,605.083c0-1.471,1.05-2.479,2.563-2.479c1.514,0,2.563,1.008,2.563,2.479c0,1.555-1.05,2.564-2.563,2.564
			C345.145,607.648,344.095,606.638,344.095,605.083z M344.726,612.351h3.823v22.811h-3.823V612.351z"/>
	</g>
	<g>
		<path d="M359.845,644.529l0.756-3.066c0.462,0.168,1.134,0.377,1.722,0.377c2.604,0,4.243-2.1,5.167-4.914l0.504-1.723
			l-9.157-22.852h3.99l4.663,12.686c0.672,1.975,1.471,4.328,2.185,6.387h0.21c0.63-2.059,1.302-4.369,1.932-6.387l4.075-12.686
			h3.738l-8.612,24.699c-1.554,4.494-3.948,7.939-8.485,7.939C361.441,644.992,360.559,644.824,359.845,644.529z"/>
	</g>
	<g>
		<path d="M388.027,623.777c0-7.604,4.999-12.016,10.586-12.016s10.586,4.412,10.586,12.016c0,7.563-4.999,11.93-10.586,11.93
			S388.027,631.339,388.027,623.777z M405.251,623.777c0-5.25-2.688-8.822-6.638-8.822s-6.596,3.572-6.596,8.822
			c0,5.252,2.646,8.736,6.596,8.736C402.561,632.515,405.251,629.029,405.251,623.777z"/>
	</g>
	<g>
		<path d="M420.786,626.802v-14.451h3.824v13.988c0,4.242,1.26,6.049,4.283,6.049c2.354,0,3.992-1.133,6.176-3.863v-16.174h3.822
			v22.811H435.7l-0.295-3.57h-0.125c-2.143,2.48-4.412,4.117-7.563,4.117C422.928,635.707,420.786,632.599,420.786,626.802z"/>
	</g>
</g>
<g>
	<g>
		<path d="M504.902,604.328h3.906v30.834h-3.906V604.328z"/>
	</g>
	<g>
		<path d="M521.492,612.351h3.15l0.336,3.277h0.127c2.185-2.143,4.536-3.865,7.646-3.865c4.789,0,6.973,3.107,6.973,8.947v14.451
			H535.9v-13.947c0-4.285-1.302-6.09-4.326-6.09c-2.353,0-3.948,1.176-6.26,3.486v16.551h-3.822V612.351z"/>
	</g>
	<g>
		<path d="M552.445,628.105V615.46h-3.401v-2.898l3.569-0.211l0.463-6.428h3.192v6.428h6.175v3.109h-6.175v12.729
			c0,2.813,0.882,4.41,3.528,4.41c0.799,0,1.85-0.295,2.604-0.588l0.756,2.855c-1.303,0.42-2.813,0.84-4.201,0.84
			C554.085,635.707,552.445,632.64,552.445,628.105z"/>
	</g>
	<g>
		<path d="M569.876,623.777c0-7.395,5-12.016,10.293-12.016c5.797,0,9.071,4.201,9.071,10.713c0,0.842-0.084,1.639-0.168,2.186
			h-15.375c0.252,4.873,3.234,7.98,7.563,7.98c2.227,0,4.033-0.672,5.713-1.807l1.387,2.52c-2.018,1.305-4.453,2.354-7.563,2.354
			C574.748,635.707,569.876,631.296,569.876,623.777z M585.882,621.886c0-4.578-2.103-7.057-5.672-7.057
			c-3.234,0-6.093,2.604-6.554,7.057H585.882z"/>
	</g>
	<g>
		<path d="M599.484,612.351h3.152l0.336,4.158h0.125c1.596-2.896,3.906-4.746,6.469-4.746c1.01,0,1.723,0.125,2.438,0.504
			l-0.716,3.361c-0.756-0.295-1.303-0.379-2.227-0.379c-1.891,0-4.242,1.344-5.754,5.252v14.66h-3.824V612.351L599.484,612.351z"/>
	</g>
	<g>
		<path d="M620.398,612.351h3.152l0.336,3.277h0.125c2.186-2.143,4.537-3.865,7.646-3.865c4.787,0,6.974,3.107,6.974,8.947v14.451
			h-3.822v-13.947c0-4.285-1.303-6.09-4.328-6.09c-2.352,0-3.947,1.176-6.258,3.486v16.551h-3.824V612.351z"/>
	</g>
	<g>
		<path d="M649.255,629.238c0-4.957,4.325-7.436,14.028-8.527c0-2.939-0.965-5.756-4.705-5.756c-2.646,0-5.041,1.219-6.846,2.438
			l-1.514-2.646c2.102-1.344,5.336-2.982,8.989-2.982c5.546,0,7.898,3.74,7.898,9.369v14.029h-3.152l-0.336-2.73h-0.125
			c-2.186,1.809-4.748,3.277-7.563,3.277C652.109,635.707,649.255,633.355,649.255,629.238z M663.283,629.617v-6.385
			c-7.688,0.924-10.291,2.813-10.291,5.754c0,2.604,1.765,3.654,4.033,3.654C659.253,632.64,661.057,631.591,663.283,629.617z"/>
	</g>
	<g>
		<path d="M679.031,628.105V615.46h-3.401v-2.898l3.569-0.211l0.463-6.428h3.191v6.428h6.176v3.109h-6.176v12.729
			c0,2.813,0.883,4.41,3.529,4.41c0.799,0,1.848-0.295,2.604-0.588l0.758,2.855c-1.303,0.42-2.813,0.84-4.2,0.84
			C680.671,635.707,679.031,632.64,679.031,628.105z"/>
	</g>
	<g>
		<path d="M698.184,605.083c0-1.471,1.051-2.479,2.563-2.479c1.513,0,2.563,1.008,2.563,2.479c0,1.555-1.051,2.564-2.563,2.564
			C699.235,607.648,698.184,606.638,698.184,605.083z M698.813,612.351h3.824v22.811h-3.824V612.351z"/>
	</g>
	<g>
		<path d="M713.262,623.777c0-7.604,4.998-12.016,10.586-12.016c5.586,0,10.586,4.412,10.586,12.016c0,7.563-5,11.93-10.586,11.93
			C718.26,635.707,713.262,631.339,713.262,623.777z M730.484,623.777c0-5.25-2.688-8.822-6.637-8.822
			c-3.949,0-6.597,3.572-6.597,8.822c0,5.252,2.646,8.736,6.597,8.736C727.796,632.515,730.484,629.029,730.484,623.777z"/>
	</g>
	<g>
		<path d="M745.055,612.351h3.149l0.337,3.277h0.127c2.184-2.143,4.534-3.865,7.645-3.865c4.789,0,6.973,3.107,6.973,8.947v14.451
			h-3.821v-13.947c0-4.285-1.304-6.09-4.326-6.09c-2.354,0-3.949,1.176-6.26,3.486v16.551h-3.822L745.055,612.351L745.055,612.351z"
			/>
	</g>
	<g>
		<path d="M773.908,629.238c0-4.957,4.328-7.436,14.031-8.527c0-2.939-0.967-5.756-4.705-5.756c-2.646,0-5.041,1.219-6.848,2.438
			l-1.513-2.646c2.101-1.344,5.334-2.982,8.99-2.982c5.545,0,7.896,3.74,7.896,9.369v14.029h-3.15l-0.336-2.73h-0.127
			c-2.184,1.809-4.746,3.277-7.561,3.277C776.766,635.707,773.908,633.355,773.908,629.238z M787.939,629.617v-6.385
			c-7.688,0.924-10.293,2.813-10.293,5.754c0,2.604,1.766,3.654,4.033,3.654C783.906,632.64,785.714,631.591,787.939,629.617z"/>
	</g>
	<g>
		<path d="M803.645,630.625v-28.9h3.822v29.152c0,1.176,0.504,1.639,1.092,1.639c0.211,0,0.379,0,0.799-0.084l0.547,2.939
			c-0.547,0.211-1.178,0.336-2.227,0.336C804.82,635.707,803.645,633.859,803.645,630.625z"/>
	</g>
</g>
<g>
	<g>
		<path d="M360.513,659.478l1.992,1.295c-1.352,2.016-2.855,4.008-4.517,5.977h2.457v2.191h-4.35
			c-0.886,0.996-1.793,1.959-2.724,2.889h5.445v1.992l-4.283,4.217v0.598c1.793-0.309,3.774-0.664,5.943-1.063
			c-0.066,0.842-0.11,1.604-0.133,2.291c-1.815,0.311-3.752,0.652-5.812,1.029v3.619c0.155,2.744-1.129,4.063-3.852,3.951
			c-0.952,0-2.181-0.021-3.687-0.066c-0.089-0.707-0.198-1.537-0.332-2.49c1.04,0.109,2.226,0.178,3.554,0.199
			c1.395,0.133,2.036-0.486,1.926-1.859v-2.922c-2.147,0.398-4.405,0.83-6.773,1.295l-0.397-2.424
			c1.837-0.266,4.228-0.643,7.172-1.129v-1.66l3.486-3.453h-4.449c-1.837,1.684-3.675,3.23-5.512,4.648
			c-0.442-0.619-0.964-1.252-1.562-1.893c1.284-0.908,2.479-1.826,3.586-2.756h-2.756v-2.125h5.146
			c1.039-0.93,2.048-1.895,3.021-2.889h-8.6v-2.191h6.541v-3.387h-5.214v-2.191h5.214v-4.516h2.391v4.516h4.084v2.191h-4.084v3.387
			h1.627C357.06,664.513,358.876,662.089,360.513,659.478z M359.517,672.892c2.501-4.604,4.505-10.027,6.01-16.27l2.424,0.598
			c-0.441,1.814-0.952,3.619-1.526,5.412h10.358v2.391h-3.254c-0.155,5.711-1.55,10.625-4.184,14.742
			c2.015,2.768,4.659,4.926,7.936,6.475c-0.62,0.908-1.14,1.727-1.561,2.457c-3.231-1.859-5.866-4.127-7.902-6.807
			c-2.234,2.789-5.136,5.168-8.699,7.139c-0.397-0.574-0.939-1.307-1.627-2.191c3.696-1.881,6.651-4.26,8.865-7.139
			c-1.55-2.59-2.601-5.512-3.154-8.766c-0.509,1.084-1.028,2.158-1.561,3.221C360.934,673.689,360.225,673.267,359.517,672.892z
			 M364.862,666.949c0.442,4.027,1.45,7.514,3.021,10.459c2.015-3.498,3.088-7.627,3.221-12.385h-5.512
			C365.371,665.664,365.129,666.306,364.862,666.949z"/>
	</g>
	<g>
		<path d="M410.219,662.4c2.833,1.947,5.634,3.973,8.399,6.074l-1.893,1.895c-0.919-0.797-1.876-1.594-2.872-2.393
			c-8.677,0.033-15.301,0.156-19.872,0.365c-1.395,0.066-2.59,0.189-3.586,0.365l-0.93-2.789c1.526-0.287,2.756-0.707,3.686-1.262
			c1.328-0.785,2.646-1.715,3.951-2.789h-9.994v-2.324h15.572c-0.465-0.807-0.975-1.66-1.527-2.557l2.291-1.129
			c1.007,1.57,1.754,2.801,2.241,3.686h13.663v2.324H401.02c-2.191,1.551-4.194,2.898-6.01,4.051c5.189,0,10.491-0.055,15.903-0.166
			c-0.729-0.541-1.482-1.084-2.258-1.627L410.219,662.4z M391.458,670.634h23.642v13.713c0,2.611-1.55,3.918-4.648,3.918
			c-1.04,0-2.313-0.012-3.817-0.033c-0.044-0.223-0.223-1.129-0.531-2.723c1.527,0.223,2.922,0.332,4.184,0.332
			c1.483,0,2.247-0.631,2.291-1.893v-1.029h-18.594v5.645h-2.523v-17.93H391.458z M412.575,672.892h-18.594v2.822h18.594V672.892z
			 M393.981,680.728h18.594v-2.822h-18.594V680.728z"/>
	</g>
	<g>
		<path d="M443.537,658.615l-12.335,29.98h-3.038l12.335-29.98H443.537z"/>
	</g>
	<g>
		<path d="M461.545,665.089c1.659,1.172,3.607,2.678,5.844,4.516c-0.819,0.93-1.461,1.648-1.926,2.158
			c-2.501-2.234-4.36-3.818-5.578-4.748L461.545,665.089z M464.799,674.619c0.818,0.354,1.692,0.719,2.623,1.096
			c-1.571,4.715-2.944,8.977-4.117,12.783l-2.855-0.963C461.909,683.638,463.359,679.333,464.799,674.619z M462.84,656.49
			c1.771,1.416,3.675,3.031,5.711,4.848c-0.753,0.773-1.405,1.461-1.959,2.059c-2.036-2.016-3.853-3.707-5.445-5.08L462.84,656.49z
			 M485.385,677.275c2.125,2.898,4.416,6.23,6.873,9.992c-0.887,0.51-1.749,1.02-2.591,1.527c-0.619-1.029-1.229-2.025-1.825-2.988
			c-7.262,0.6-12.949,1.098-17.066,1.494l-1.229-2.889c1.395-0.619,2.756-1.914,4.084-3.885c1.461-2.08,2.815-4.271,4.066-6.574
			h-8.716v-2.391h10.426v-7.039h-8.799v-2.391h8.799v-6.076h2.656v6.076h9.197v2.391h-9.197v7.039h10.758v2.391h-11.787
			c-2.468,4.063-4.881,7.57-7.237,10.525c4.217-0.199,8.434-0.498,12.649-0.896c-1.14-1.781-2.225-3.42-3.254-4.914L485.385,677.275
			z"/>
	</g>
	<g>
		<path d="M512.013,655.693l2.49,1.063c-0.498,0.818-1.02,1.615-1.562,2.391h17.963v2.225c-2.059,2.502-4.875,4.688-8.45,6.559
			c3.72,1.352,8.151,2.186,13.299,2.506c-0.708,0.996-1.328,1.928-1.859,2.789c-5.767-0.764-10.604-2.053-14.51-3.867
			c-4.395,1.869-9.706,3.348-15.938,4.434c-0.376-0.688-0.83-1.461-1.36-2.324c5.545-0.854,10.358-2.059,14.442-3.619
			c-2.522-1.539-4.543-3.359-6.06-5.463c-1.716,2.037-3.613,3.924-5.694,5.662c-0.664-0.709-1.271-1.307-1.826-1.793
			C507.021,663.021,510.044,659.5,512.013,655.693z M505.04,675.15h9.662c0.155-1.074,0.288-2.27,0.398-3.586h2.689
			c-0.145,1.316-0.294,2.512-0.448,3.586h13.396c-0.222,3.961-0.432,6.738-0.631,8.334c-0.354,3.119-2.214,4.691-5.578,4.715
			c-1.306,0.021-3.265-0.023-5.877-0.133c-0.133-0.82-0.299-1.738-0.498-2.758c2.546,0.223,4.648,0.344,6.31,0.365
			c1.882-0.043,2.922-0.996,3.121-2.854c0.198-1.66,0.343-3.432,0.432-5.314h-11.073c-1.173,5.324-5.296,9.188-12.368,11.588
			c-0.509-0.729-1.052-1.471-1.627-2.225c6.354-2.059,10.116-5.18,11.289-9.363h-9.197V675.15z M527.353,661.337h-14.825
			c1.782,2.135,4.073,3.896,6.873,5.279C522.599,665.123,525.251,663.363,527.353,661.337z"/>
	</g>
	<g>
		<path d="M560.604,658.615l-12.335,29.98h-3.038l12.335-29.98H560.604z"/>
	</g>
	<g>
		<path d="M578.792,679.765c2.234-3.188,4.018-6.885,5.346-11.09h-4.914v-2.357h5.246v-5.213c-1.417,0.109-2.934,0.223-4.549,0.332
			c-0.11-0.754-0.276-1.561-0.498-2.424c4.516-0.244,8.456-0.607,11.819-1.096l0.599,2.523c-1.372,0.154-3.012,0.309-4.914,0.465
			v5.412h4.615v2.355h-4.615v4.25l1.096-1.229c1.461,1.15,2.911,2.357,4.35,3.619l-1.76,1.959c-1.129-1.063-2.356-2.201-3.686-3.42
			v15.041h-2.457v-14.643c-1.195,3.143-2.7,5.932-4.517,8.367C579.599,681.667,579.213,680.716,578.792,679.765z M590.445,680.595
			c3.542-2.59,6.432-5.668,8.666-9.23c-2.036,0.996-4.306,1.902-6.807,2.723c-0.354-0.686-0.765-1.428-1.229-2.225
			c3.276-0.951,6.198-2.146,8.767-3.586c-0.952-0.93-2.202-2.025-3.752-3.287l1.526-1.66c1.616,1.262,3.044,2.447,4.283,3.553
			c2.059-1.305,3.984-3.176,5.777-5.609h-9.929c-1.283,1.793-3.021,3.629-5.213,5.512c-0.465-0.598-1.007-1.219-1.627-1.859
			c3.188-2.59,5.634-5.602,7.338-9.031l2.357,0.896c-0.376,0.73-0.786,1.438-1.229,2.125h11.091v2.391
			c-1.903,3.695-5.27,6.84-10.095,9.43l1.761,0.598c-0.354,0.576-0.721,1.141-1.097,1.693h10.525v2.424
			c-2.944,6.752-9.651,11.346-20.121,13.779c-0.398-0.842-0.797-1.57-1.195-2.191c3.521-0.752,6.862-1.926,10.027-3.52
			c-0.952-1.039-2.092-2.182-3.42-3.42l1.594-1.594c1.438,1.283,2.756,2.523,3.951,3.719c2.813-1.992,4.958-4.271,6.441-6.84h-9.529
			c-2.036,2.633-4.482,5.068-7.338,7.305C591.552,682.066,591.044,681.369,590.445,680.595z"/>
	</g>
	<g>
		<path d="M620.798,657.453h26.596v12.119h-2.623v-1.461h-7.454c0.188,2.18,0.471,4.172,0.847,5.977h11.82v2.391H638.76
			c1.129,3.875,2.812,6.719,5.047,8.533c1.105,0.906,1.97,0.73,2.59-0.531c0.531-1.084,0.93-2.967,1.195-5.645
			c1.019,0.441,1.87,0.764,2.557,0.963c-0.376,2.5-0.83,4.459-1.361,5.877c-0.729,1.881-1.825,2.822-3.286,2.822
			c-1.328,0-2.635-0.564-3.919-1.693c-2.435-2.082-4.271-5.521-5.512-10.326h-12.684v8.666c2.546-0.797,5.257-1.805,8.135-3.021
			c-0.089,1.02-0.1,1.992-0.033,2.922c-3.586,1.219-6.563,2.303-8.932,3.254c-0.267,0.135-0.675,0.344-1.229,0.631l-1.461-2.455
			c0.62-0.443,0.931-1.064,0.931-1.859V657.453L620.798,657.453z M644.77,659.843h-21.383v5.877h21.383V659.843z M634.659,668.111
			h-11.271v5.977h12.151C635.175,672.261,634.882,670.269,634.659,668.111z"/>
	</g>
	<g>
		<path d="M676.991,658.615l-12.335,29.98h-3.038l12.335-29.98H676.991z"/>
	</g>
	<g>
		<path d="M694.582,661.205h6.426c-0.653-1.34-1.423-2.723-2.309-4.15l2.025-1.162c1.129,1.66,1.992,3.043,2.59,4.15l-2.092,1.162
			h6.772v2.324h-7.785c-0.012,1.727-0.039,3.33-0.083,4.813h6.44c-0.177,5.889-0.365,10.848-0.563,14.875
			c-0.155,3.012-1.562,4.518-4.218,4.518c-0.574,0-1.594-0.023-3.055-0.066c-0.133-0.93-0.321-1.816-0.564-2.656
			c1.219,0.154,2.303,0.232,3.255,0.232c1.306,0,2.024-0.83,2.157-2.49c0.199-2.922,0.365-6.951,0.498-12.086h-4.018
			c-0.089,8.344-1.583,14.344-4.482,17.996c-0.486-0.754-1.007-1.494-1.561-2.225c1.683-2.701,2.7-5.424,3.055-8.17
			c0.433-2.566,0.67-7.48,0.714-14.74h-3.204L694.582,661.205L694.582,661.205z M706.337,666.65
			c2.391-3.166,4.326-6.752,5.811-10.76l2.49,0.863c-0.421,1.008-0.857,1.992-1.313,2.955h12.966v2.324h-14.128
			c-1.129,2.137-2.362,4.15-3.701,6.043C707.886,667.613,707.177,667.136,706.337,666.65z M725.029,671.464l1.494,2.092
			c-1.782,1.063-3.935,2.252-6.458,3.568c1.66,3.553,4.09,6.16,7.288,7.82c-0.687,0.818-1.306,1.648-1.859,2.488
			c-5.667-3.686-9.004-9.854-10.011-18.51c-1.096,0.154-2.197,0.293-3.304,0.414v15.041c1.526-0.574,3.497-1.395,5.91-2.457
			c0,0.93,0.044,1.771,0.133,2.523c-2.324,0.93-4.427,1.805-6.31,2.623c-0.708,0.354-1.295,0.754-1.76,1.195l-1.561-2.092
			c0.753-0.576,1.129-1.506,1.129-2.789v-16.203c4.095-0.244,8.909-1.029,14.442-2.357l1.263,2.424
			c-2.49,0.51-5.047,0.963-7.67,1.361c0.31,2.4,0.808,4.57,1.494,6.508C721.333,673.921,723.26,672.703,725.029,671.464z"/>
	</g>
	<g>
		<path d="M737.813,665.123c2.015,1.438,3.774,2.789,5.279,4.051c-0.73,0.84-1.328,1.527-1.793,2.059
			c-1.859-1.703-3.53-3.145-5.015-4.316L737.813,665.123z M740.402,674.718c0.819,0.354,1.671,0.688,2.558,0.996
			c-0.975,4.051-1.971,8.289-2.988,12.717l-2.756-0.896C738.544,683.261,739.605,678.99,740.402,674.718z M739.141,656.722
			c1.438,1.105,3.032,2.457,4.781,4.051c-0.155,0.154-0.774,0.797-1.859,1.926c-1.461-1.482-2.979-2.91-4.549-4.283L739.141,656.722
			z M743.457,662.234h11.953v2.258h-6.807c-0.011,1.826-0.039,3.508-0.083,5.047h6.126c-0.155,6.375-0.332,11.111-0.531,14.211
			c-0.155,2.611-1.405,3.918-3.752,3.918c-0.93,0-1.903-0.012-2.922-0.033c-0.133-0.73-0.31-1.57-0.531-2.523
			c0.952,0.109,1.915,0.166,2.89,0.166c1.194,0,1.849-0.664,1.959-1.992c0.177-2.367,0.332-6.219,0.465-11.555h-3.785
			c-0.11,7.902-1.727,13.58-4.848,17.033c-0.643-0.754-1.229-1.418-1.761-1.992c1.837-2.215,3.012-4.805,3.521-7.77
			c0.531-2.557,0.818-7.395,0.863-14.51h-2.757V662.234L743.457,662.234z M746.777,657.154l2.158-1.195
			c0.996,1.461,1.915,2.965,2.756,4.516l-2.19,1.195C748.681,660.142,747.773,658.636,746.777,657.154z M755.344,674.552h6.108
			v-1.76l3.951-4.15h-8.168v-1.926c-0.465,0.785-0.963,1.549-1.494,2.291c-0.486-0.576-1.063-1.195-1.727-1.859
			c2.368-3.363,3.907-7.082,4.615-11.156l2.489,0.398c-0.332,1.594-0.753,3.121-1.262,4.582h9.496v2.258h-10.359
			c-0.476,1.096-1.002,2.146-1.577,3.154h11.008v2.424l-4.582,4.615v1.129h5.743v2.258h-5.743v7.703c0,2.348-1.195,3.52-3.586,3.52
			c-1.04,0-2.182-0.01-3.421-0.033c-0.089-0.73-0.222-1.57-0.397-2.523c1.417,0.135,2.59,0.199,3.52,0.199
			c0.996,0,1.494-0.553,1.494-1.66v-7.205h-6.108V674.552L755.344,674.552z"/>
	</g>
</g>
<g>
	<path fill="#EED44A" d="M147,629.884c0,0-21.667-31.334-10-65.667c11.667-34.334,35.667-63,35.667-63
		c-1,0-55.333-0.333-55.333-0.333s-23.333,39-18.667,77.667C103.333,617.218,147,629.884,147,629.884z"/>
	<path fill="#E23723" d="M148.667,565.216c-18,30.333-1.667,53.334-1.667,53.334s4.096-19.324,27.667-35.667
		c25-17.333,81.279-5.333,81.279-5.333l-29.279-50.667C226.667,526.883,166.667,534.883,148.667,565.216z"/>
	<path fill="#E23723" d="M74.334,581.217L48,629.882c0,0,25.667,31.668,76.667,34.334c51,2.668,77.667-39,77.667-39
		s-35.667,11.334-67.667,5C102.667,623.884,74.334,581.217,74.334,581.217z"/>
	<g>
		<path fill="#B7B5B5" d="M153.357,619.896l-0.126,0.597l2.007,5.14c0.17,0,0.336,0.008,0.507,0.008
			c3.803,0,7.535-0.173,11.124-0.461l-7.193-18.423C154.632,614.246,153.379,619.801,153.357,619.896z"/>
		<path fill="#B7B5B5" d="M177.65,505.39c-0.059,0.07-1.604,1.935-4.053,5.209c4.334,5.8,8.674,12.426,12.873,20.005
			c3.609-1.367,7.173-2.57,10.597-3.622c-5.237-9.721-10.741-18.097-16.308-25.308L177.65,505.39z"/>
		<path fill="#B7B5B5" d="M147.667,453.701c-71.469,0-129.613,58.145-129.613,129.614c0,71.467,58.145,129.61,129.613,129.61
			c71.47,0,129.613-58.143,129.613-129.611C277.28,511.845,219.136,453.701,147.667,453.701z M216.352,679.964
			c3.308-6.937,6.25-15.495,8.014-25.877c3.667-21.589,1.559-46.423-6.247-74.071c-0.65-0.008-1.302-0.013-1.957-0.013
			c-3.289,0-6.427,0.11-9.412,0.321c3.55,12.058,5.988,23.529,7.273,34.357l3.473-1.103l-3.092,4.831
			c1.16,12.113,0.885,23.42-0.884,33.835c-3.672,21.625-12.877,34.012-18.535,39.82c-0.57,0.249-1.141,0.496-1.715,0.736
			l-14.262-36.526c-2.999,1.908-6.231,3.736-9.693,5.415l13.619,34.881c-1.497,0.468-3.01,0.898-4.531,1.307
			c-14.047-1.682-31.071-11.6-46.716-27.066c-0.777,0.02-1.561,0.029-2.35,0.029c-1.656,0-3.344-0.045-5.014-0.133
			c-2.898-0.151-5.704-0.406-8.447-0.725c12.357,14.198,25.906,25.066,39.079,31.711c-2.412,0.146-4.841,0.23-7.29,0.23
			c-65.403,0-118.613-53.209-118.613-118.61c0-38.208,18.165-72.249,46.306-93.957c-5.806,16.844-11.305,45.195-4.381,84.4
			l2.786-5.147l5.983,9.011c0.065,0.097,1.697,2.521,4.537,6.215c-0.136-0.578-0.288-1.151-0.418-1.73
			c-13.729-61.132,4.489-96.958,8.341-103.613c1.535-0.816,3.089-1.601,4.663-2.35l11.105,28.441
			c2.059-4.122,3.544-6.645,3.779-7.038l1.906-3.185l2.136,0.012l-8.783-22.495c3.36-1.229,6.792-2.306,10.285-3.231
			c3.423,0.798,14.808,4.027,28.723,14.158c4.206,3.063,8.886,6.953,13.794,11.836c7.34,0.044,12.523,0.075,12.852,0.075
			l2.405,0.001c-13.183-15.208-26.308-24.289-36.656-29.658c3.053-0.237,6.138-0.359,9.25-0.359
			c65.106,0,118.12,52.728,118.602,117.722c0.002,0.298,0.011,0.594,0.011,0.893c0,1.028-0.013,2.054-0.04,3.076
			C265.254,624.954,245.77,658.998,216.352,679.964z"/>
	</g>
</g>
</svg>
