<svg width="340" height="156" xmlns="http://www.w3.org/2000/svg" xml:space="preserve" enable-background="new 0 0 841.891 1190.55" version="1.1">

 <g>
  <title>Layer 1</title>
  <g stroke="null" id="svg_97">
   <g stroke="null" id="svg_1">
    <g stroke="null" id="svg_2">
     <path stroke="null" id="svg_3" d="m128.39649,57.5019l11.76577,0l0,3.89551l-6.3883,0c-0.50472,0 -1.09628,0.15478 -1.80923,0.47412c-1.07849,0.48825 -1.88562,1.23422 -2.40115,2.21907c-0.50402,0.97651 -0.75969,1.90335 -0.75969,2.75444l0.01953,15.63678c0,1.80512 0.73248,3.30069 2.17687,4.44538c0.8727,0.68761 2.19291,1.02181 4.03563,1.02181l0.00035,0l24.24972,-0.02066c1.79109,0 3.21804,-0.72821 4.24352,-2.1676c0.64912,-0.93373 0.97874,-2.26111 0.97874,-3.94408l0.03837,-15.09343c0,-1.66883 -0.65819,-3.06037 -1.95468,-4.13547c-0.94037,-0.79019 -2.29442,-1.19037 -4.02482,-1.19037l-6.07786,0l0,-3.89551l12.54255,0l0,-4.45771l-36.6353,0l0,4.45771zm24.0938,8.37243l5.78766,-0.01921c0.57308,0 1.02164,0.16601 1.37079,0.50601c0.41054,0.40343 0.60936,0.99064 0.60936,1.79497l0,5.61038l-6.11623,0c-0.51239,0 -0.90549,-0.16021 -1.20127,-0.49079c-0.30276,-0.33674 -0.44995,-0.75032 -0.44995,-1.26576l0,-6.1356l-0.00035,0zm-8.05766,-8.37243l3.76845,0l0,3.89406l-3.76845,-0.01704l0,-3.87702zm-1.13395,14.68927c0.71748,-1.76489 1.09733,-3.89442 1.13151,-6.3346l3.77089,0.01704l0,6.41869c0,1.03523 0.01116,1.26721 0.02197,1.35747c0.08301,0.67601 0.31915,1.37849 0.70423,2.09184c0.90374,1.63367 2.49463,2.46193 4.72905,2.46193l6.59967,0l-0.01709,2.56306c0,1.23495 -0.14266,1.74459 -0.26718,1.96352c-0.28602,0.539 -0.85317,0.80107 -1.73285,0.80107l-22.58001,-0.04023l-0.00732,0l-0.96409,0.04023c-0.41717,0 -0.79562,-0.20407 -1.1507,-0.61802c-0.29788,-0.3661 -0.44228,-0.74525 -0.44228,-1.15557l0.01744,-2.93169c2.27174,-0.17254 4.12911,-0.64629 5.52466,-1.41147c2.17233,-1.19109 3.74124,-2.94873 4.66208,-5.22325zm-3.09736,-5.66946c0,0.61766 -0.06906,1.2857 -0.20649,1.986c-0.19986,1.02544 -0.42449,1.79497 -0.669,2.29084c-0.21486,0.44657 -0.59785,0.95874 -1.13849,1.51985c-0.54169,0.56292 -1.04117,0.96817 -1.48415,1.20414c-0.67528,0.35595 -1.88736,0.67058 -3.60835,0.9341l0.01849,-6.68403c0,-0.539 0.18347,-0.99753 0.56157,-1.40241c0.32334,-0.34653 0.73597,-0.51508 1.26301,-0.51508l5.24353,0.01885c0.01325,0.27367 0.01988,0.49043 0.01988,0.64774z"/>
    </g>
    <g stroke="null" id="svg_4">
     <rect stroke="null" id="svg_5" height="4.45771" width="7.51248" y="67.5312" x="168.69351"/>
    </g>
    <g stroke="null" id="svg_6">
     <path stroke="null" id="svg_7" d="m184.55456,52.90101l-4.28921,0.02392l0,2.43909l-4.0597,0l0,-1.69493l-7.51248,0l0,4.45771l7.51248,0l0,1.69493l2.49044,0l-0.8577,20.06222c-0.05092,1.28896 -0.1587,2.31186 -0.3209,3.03935c-0.01291,0.058 -0.03314,0.11092 -0.05267,0.1642l-8.77096,0l0,4.41747l8.13649,0l1.85388,0.08699c0.86538,-0.4212 1.56437,-1.10953 2.07746,-2.04508c0.70702,-1.28678 1.11582,-3.36594 1.24941,-6.35852l0.49041,-11.75939l1.23197,0l0.51099,-0.01994c0.2037,0 0.3638,0.08446 0.51065,0.27548c0.01535,0.02102 0.15033,0.23887 0.15033,1.39988l0,14.10315c0,0.20444 -0.02511,0.55966 -0.18312,0.62998c-0.0736,0.02936 -0.27799,0.08156 -0.80678,0.09751l-0.60168,0l0,4.02999l2.28988,0.02356c1.49531,0 2.53613,-0.47919 3.09631,-1.42924c0.33311,-0.58685 0.49565,-1.59742 0.49565,-3.08973l-0.02023,-16.52411c0,-1.30527 -0.30381,-2.22777 -0.90409,-2.74139c-0.65226,-0.55712 -1.65053,-0.83478 -3.05376,-0.84928l-2.58776,-0.01776l0.1608,-3.45619l6.44341,-0.04023l0,-4.45553l-4.67952,0l0,-2.4641l0,0z"/>
    </g>
    <g stroke="null" id="svg_8">
     <path stroke="null" id="svg_9" d="m195.2959,53.10255l-4.04993,0.02429l-0.04569,0.30557c-0.248,1.67572 -0.79178,3.06363 -1.61565,4.12496l-0.07743,0.09968l0,4.89775l0.52564,-0.32115c0.32473,-0.19827 0.60238,-0.36972 0.83364,-0.51544l0,3.9343l9.14418,0c0.60308,0 0.60308,0.22763 0.60308,0.36102c-0.00732,0.11635 -0.18207,0.7119 -2.10885,3.48374c-0.28113,0.40525 -0.68644,1.00079 -1.21836,1.78627l-6.65304,0l0,4.43741l6.2711,0l0,4.78249c0,1.32376 -0.23474,2.21037 -0.699,2.63519c-0.203,0.18849 -0.68435,0.41286 -1.82563,0.41286l-1.72692,0l0,4.46206l1.63623,0.07612c0.1615,0.00652 0.31985,0.00942 0.47577,0.00942c2.09525,0 3.71369,-0.58068 4.81241,-1.72501c1.16988,-1.21864 1.75935,-3.09227 1.75203,-5.56833l-0.01779,-5.08406l3.90134,0l0,-4.43741l-2.89052,0c0.95013,-1.447 1.58984,-2.46664 1.9491,-3.10495c0.66342,-1.16862 1.00001,-2.24843 1.00001,-3.2108c0,-2.5163 -1.7311,-3.79257 -5.14482,-3.79257l-8.44099,0c0.43182,-0.33239 0.91805,-0.84819 1.44613,-1.53472l12.15887,0l0,-4.45771l-10.32487,0l0.32997,-2.08096z"/>
    </g>
    <g stroke="null" id="svg_10">
     <path stroke="null" id="svg_11" d="m270.80023,53.75102c-0.72551,-0.50275 -1.82388,-0.74706 -3.35826,-0.74706l-23.97835,0c-0.92746,0 -1.71122,0.11563 -2.33069,0.34399c-0.58982,0.21893 -1.17581,0.62744 -1.74261,1.21646c-1.00734,1.06169 -1.51798,2.62033 -1.51798,4.63278l0,22.49696c0,1.22118 0.1315,2.20783 0.38961,2.92698c0.18591,0.53719 0.54797,1.08851 1.11058,1.68696c1.02129,1.06132 2.46951,1.59924 4.30456,1.59924l23.93963,0c2.19745,0 3.86925,-0.8616 4.96763,-2.56016c0.51099,-0.78149 0.75969,-2.07625 0.75969,-3.95604l0,-22.53647c-0.00035,-2.26039 -0.8577,-3.97852 -2.54381,-5.10364zm-1.7461,27.31823c0,0.84638 -0.1601,1.46512 -0.4803,1.84354c-0.29125,0.35704 -0.86782,0.53791 -1.71436,0.53791l-22.34701,0c-0.8877,0 -1.50054,-0.15768 -1.81516,-0.46252c-0.35543,-0.35704 -0.53471,-1.00333 -0.53471,-1.91894l0,-21.10506c0,-0.95838 0.11441,-1.37849 0.20998,-1.5619c0.12731,-0.24286 0.34427,-0.47122 0.64458,-0.67928c0.14126,-0.09787 0.56959,-0.26207 1.84551,-0.26207l21.70626,0c0.97106,0 1.65785,0.20734 2.04432,0.61983c0.20126,0.20951 0.44158,0.70646 0.44158,1.88269l-0.0007,21.10579l0,0z"/>
    </g>
    <g stroke="null" id="svg_12">
     <polygon stroke="null" id="svg_13" points="243.85273112354844,63.49433745400529 253.38588111413446,63.49433745400529 253.38588111413446,67.34959631787024 244.35749226059488,67.34959631787024 244.35749226059488,71.8073139004373 253.38588111413446,71.8073139004373 253.38588111413446,77.518778422982 243.85273112354844,77.518778422982 243.85273112354844,81.97653361878474 267.2085150283492,81.97653361878474 267.2085150283492,77.518778422982 265.2091853054844,77.518778422982 265.2091853054844,74.23008772832327 260.8997401212182,74.23008772832327 260.8997401212182,77.518778422982 257.67541124438503,77.518778422982 257.67541124438503,71.8073139004373 266.78156584249155,71.8073139004373 266.78156584249155,67.34959631787024 257.67541124438503,67.34959631787024 257.67541124438503,63.49433745400529 267.2085150283492,63.49433745400529 267.2085150283492,59.03698471982443 243.85273112354844,59.03698471982443 "/>
    </g>
    <g stroke="null" id="svg_14">
     <path stroke="null" id="svg_15" d="m313.41364,82.69386c-0.2023,-0.33928 -0.33555,-0.89604 -0.39624,-1.65977c-0.09173,-0.98194 -0.14964,-1.55501 -0.1751,-1.7406l-1.08268,-10.04779l-4.33351,0l1.36416,12.46984c0.3788,3.39095 2.11304,5.51831 5.15319,6.32228l0.43461,0.11454l0,-4.64475l-0.16777,-0.10584c-0.38124,-0.2396 -0.65086,-0.481 -0.79666,-0.70791z"/>
    </g>
    <g stroke="null" id="svg_16">
     <path stroke="null" id="svg_17" d="m291.33312,62.26517l0,4.45771l9.43612,0l0,14.64903c0,0.65572 -0.1458,1.18565 -0.42937,1.57096c-0.32125,0.42301 -0.70179,0.62889 -1.1629,0.62889l-2.30976,0l0,4.41747l3.20304,0c1.36277,0 2.57904,-0.58141 3.61254,-1.72791c0.91316,-1.00659 1.37637,-2.38001 1.37637,-4.08219l0,-15.45663l9.37787,0l0,-4.45771l-23.1039,0l0,0.00036z"/>
    </g>
    <g stroke="null" id="svg_18">
     <rect stroke="null" id="svg_19" height="4.45771" width="22.50187" y="53.08479" x="291.62437"/>
    </g>
    <g stroke="null" id="svg_20">
     <path stroke="null" id="svg_21" d="m285.99332,53.08479l-4.9317,0c-0.94665,0 -1.774,0.36175 -2.46324,1.07764c-0.68435,0.72604 -1.03141,1.74169 -1.03141,3.0176l0,30.86976l4.28956,0l0,-29.67939c0,-0.4636 0.0736,-0.59301 0.08162,-0.60461c0.13813,-0.1845 0.47542,-0.22328 0.73388,-0.22328l2.05793,0c0.54343,0 0.6997,0.12795 0.7276,0.15876c0.12348,0.14608 0.18556,0.39183 0.18556,0.72966l0,7.62682c0,0.43642 -0.13568,0.72712 -0.79666,0.72712l-1.64948,0l0,4.45771l1.7468,0c0.36345,0 0.6997,0.11055 0.6997,0.90909l0,8.13138c0,0.62491 -0.22393,0.86849 -0.79666,0.86849l-1.338,0l0,4.47801l2.98923,0c0.92188,0 1.72378,-0.35559 2.38755,-1.05951c0.69551,-0.75322 1.0485,-1.68623 1.0485,-2.77329l0,-10.69408c0,-0.46215 -0.02825,-0.85181 -0.08267,-1.15158c-0.06488,-0.38712 -0.28358,-0.738 -0.65191,-1.04683c0.48762,-0.62491 0.73458,-1.39698 0.73458,-2.30135l0,-9.98762c0,-0.85979 -0.35299,-1.67717 -1.04606,-2.42713c-0.66133,-0.7322 -1.63553,-1.10337 -2.8947,-1.10337z"/>
    </g>
    <g stroke="null" id="svg_22">
     <path stroke="null" id="svg_23" d="m293.31117,69.24643l-1.27696,11.96709c-0.11685,1.15231 -0.48344,1.86239 -1.1207,2.1705l-0.20161,0.09823l0,4.6886l0.44612,-0.13412c1.26545,-0.38241 2.17268,-0.83623 2.77297,-1.38683c0.86852,-0.79128 1.52182,-1.78337 1.94213,-2.95272c0.2051,-0.5825 0.37636,-1.53399 0.5239,-2.90994l1.20685,-11.53901l-4.29305,0l0,-0.00181l0.00035,0z"/>
    </g>
   </g>
   <g stroke="null" id="svg_24">
    <circle stroke="null" id="svg_25" r="3.533" cy="71.50857" cx="221.85271"/>
   </g>
   <g stroke="null" id="svg_64">
    <g stroke="null" id="svg_65">
     <path stroke="null" id="svg_66" d="m155.29376,109.53801l0.69481,0.4694c-0.47158,0.73075 -0.99583,1.4528 -1.57554,2.16651l0.857,0l0,0.79418l-1.51729,0c-0.30904,0.36102 -0.6254,0.71009 -0.95013,1.04719l1.89922,0l0,0.72205l-1.49392,1.52855l0,0.21676c0.6254,-0.112 1.31638,-0.24068 2.07293,-0.38531c-0.02302,0.3052 -0.03837,0.58141 -0.04639,0.83043c-0.63307,0.11273 -1.3087,0.23633 -2.02723,0.37299l0,1.31179c0.05406,0.99463 -0.3938,1.47273 -1.34358,1.43214c-0.33206,0 -0.76074,-0.00761 -1.28603,-0.02392c-0.03104,-0.25627 -0.06906,-0.55712 -0.1158,-0.90256c0.36275,0.03951 0.77643,0.06452 1.23964,0.07213c0.48658,0.04821 0.71016,-0.17616 0.67179,-0.67384l0,-1.05915c-0.74888,0.14426 -1.53647,0.30085 -2.36243,0.4694l-0.13847,-0.87864c0.64075,-0.09642 1.47473,-0.23307 2.5016,-0.40923l0,-0.60171l1.21592,-1.25162l-1.55182,0c-0.64075,0.61041 -1.28185,1.17079 -1.92259,1.68478c-0.15417,-0.22437 -0.33624,-0.45382 -0.54483,-0.68616c0.44786,-0.32913 0.86468,-0.66188 1.2508,-0.99898l-0.9613,0l0,-0.77026l1.79493,0c0.3624,-0.3371 0.71435,-0.68689 1.05373,-1.04719l-2.99969,0l0,-0.79418l2.28151,0l0,-1.2277l-1.81865,0l0,-0.79418l1.81865,0l0,-1.63693l0.83398,0l0,1.63693l1.4245,0l0,0.79418l-1.4245,0l0,1.2277l0.5675,0c0.69725,-0.81049 1.33068,-1.68913 1.90167,-2.63555zm-0.34741,4.86223c0.87235,-1.66883 1.57135,-3.63453 2.0963,-5.89746l0.84549,0.21676c-0.15382,0.65753 -0.33206,1.31179 -0.53227,1.96171l3.61288,0l0,0.86668l-1.135,0c-0.05406,2.07009 -0.54064,3.85129 -1.45938,5.3436c0.70283,1.00333 1.62507,1.78555 2.76809,2.34702c-0.21626,0.32913 -0.39763,0.62599 -0.54448,0.8906c-1.12698,-0.67384 -2.04607,-1.49593 -2.75623,-2.46736c-0.77922,1.01094 -1.79144,1.87327 -3.03422,2.5877c-0.13847,-0.20806 -0.32752,-0.47375 -0.5675,-0.79418c1.28917,-0.68181 2.31988,-1.54414 3.09212,-2.5877c-0.54064,-0.93881 -0.90723,-1.99796 -1.10012,-3.17745c-0.17754,0.39292 -0.35857,0.78222 -0.54448,1.16753c-0.24695,-0.16855 -0.49425,-0.32151 -0.7412,-0.45744zm1.86434,-2.15418c0.15417,1.45968 0.50576,2.72363 1.05373,3.79112c0.70283,-1.26793 1.0771,-2.76459 1.12349,-4.48924l-1.92259,0c-0.07709,0.23235 -0.1615,0.46505 -0.25462,0.69813z"/>
    </g>
    <g stroke="null" id="svg_67">
     <path stroke="null" id="svg_68" d="m172.63128,110.59716c0.98815,0.70574 1.96515,1.44011 2.92958,2.20167l-0.66028,0.68689c-0.32055,-0.28889 -0.65435,-0.57778 -1.00176,-0.8674c-3.02655,0.01196 -5.33701,0.05655 -6.93138,0.1323c-0.48658,0.02392 -0.9034,0.06851 -1.2508,0.1323l-0.32439,-1.01094c0.53227,-0.10403 0.9613,-0.25627 1.28568,-0.45744c0.46321,-0.28454 0.92293,-0.62164 1.37811,-1.01094l-3.48592,0l0,-0.84239l5.43153,0c-0.16219,-0.29252 -0.34008,-0.60171 -0.53262,-0.92685l0.7991,-0.40923c0.35124,0.56908 0.6118,1.01529 0.78166,1.33608l4.76567,0l0,0.84239l-6.39283,0c-0.76422,0.5622 -1.46287,1.05045 -2.0963,1.46838c1.80993,0 3.65928,-0.01994 5.54699,-0.06017c-0.25428,-0.1961 -0.51692,-0.39292 -0.78759,-0.58975l0.54553,-0.62491zm-6.54386,2.98461l8.24636,0l0,4.97061c0,0.94642 -0.54064,1.42017 -1.62123,1.42017c-0.36275,0 -0.80678,-0.00435 -1.33137,-0.01196c-0.01535,-0.08083 -0.07778,-0.40923 -0.18521,-0.98702c0.53262,0.08083 1.0192,0.12034 1.45938,0.12034c0.51727,0 0.78376,-0.22872 0.7991,-0.68616l0,-0.37299l-6.48561,0l0,2.04617l-0.88003,0l0,-6.49916l-0.0014,0zm7.36564,0.81847l-6.48561,0l0,1.0229l6.48561,0l0,-1.0229zm-6.48561,2.84035l6.48561,0l0,-1.0229l-6.48561,0l0,1.0229z"/>
    </g>
    <g stroke="null" id="svg_69">
     <path stroke="null" id="svg_70" d="m184.25264,109.2252l-4.30246,10.86698l-1.05966,0l4.30246,-10.86698l1.05966,0z"/>
    </g>
    <g stroke="null" id="svg_71">
     <path stroke="null" id="svg_72" d="m190.53386,111.57186c0.57866,0.42482 1.25813,0.97071 2.0384,1.63693c-0.28567,0.3371 -0.5096,0.59736 -0.67179,0.78222c-0.87235,-0.80977 -1.52077,-1.38393 -1.94561,-1.72103l0.57901,-0.69813zm1.135,3.45438c0.28532,0.12832 0.59017,0.26062 0.91491,0.39727c-0.54797,1.70907 -1.02687,3.25393 -1.43602,4.63351l-0.99583,-0.34906c0.5089,-1.41256 1.01466,-2.97301 1.51694,-4.68172zm-0.6833,-6.5713c0.61773,0.51326 1.28185,1.09866 1.992,1.75728c-0.26265,0.28019 -0.49007,0.52957 -0.6833,0.74633c-0.71016,-0.73075 -1.34393,-1.34369 -1.89922,-1.84137l0.59052,-0.66224zm7.86373,7.53403c0.7412,1.05045 1.54031,2.25821 2.39731,3.62184c-0.30939,0.18486 -0.61005,0.36972 -0.90374,0.5535c-0.21591,-0.37299 -0.42868,-0.73401 -0.63656,-1.08307c-2.533,0.21748 -4.51663,0.398 -5.95264,0.54154l-0.42868,-1.04719c0.48658,-0.22437 0.9613,-0.69378 1.4245,-1.40821c0.5096,-0.75395 0.98188,-1.54813 1.41823,-2.38291l-3.04015,0l0,-0.86668l3.6366,0l0,-2.55146l-3.0691,0l0,-0.86668l3.0691,0l0,-2.20239l0.92642,0l0,2.20239l3.20793,0l0,0.86668l-3.20793,0l0,2.55146l3.75241,0l0,0.86668l-4.11132,0c-0.86084,1.47273 -1.7025,2.74393 -2.52428,3.81504c1.4709,-0.07213 2.94179,-0.18051 4.41199,-0.32478c-0.39763,-0.64557 -0.77608,-1.23966 -1.135,-1.7812l0.76492,-0.50456z"/>
    </g>
    <g stroke="null" id="svg_73">
     <path stroke="null" id="svg_74" d="m208.13717,108.16605l0.86852,0.38531c-0.1737,0.2965 -0.35578,0.5854 -0.54483,0.86668l6.26552,0l0,0.80651c-0.71818,0.90691 -1.70041,1.69928 -2.94737,2.37747c1.29754,0.49007 2.84308,0.79237 4.63871,0.90836c-0.24695,0.36102 -0.46321,0.69885 -0.64842,1.01094c-2.01154,-0.27693 -3.69869,-0.74416 -5.06111,-1.40169c-1.53298,0.67746 -3.38547,1.21356 -5.5592,1.60721c-0.13115,-0.24938 -0.28951,-0.52957 -0.47437,-0.84239c1.9341,-0.30955 3.61288,-0.74633 5.03739,-1.31179c-0.87968,-0.55785 -1.5846,-1.21755 -2.11374,-1.9802c-0.59854,0.73836 -1.26022,1.42235 -1.98607,2.05233c-0.2316,-0.25699 -0.44333,-0.47375 -0.63691,-0.64992c1.42067,-1.1726 2.47509,-2.44888 3.16188,-3.82882zm-2.43219,7.05266l3.37012,0c0.05406,-0.3893 0.10045,-0.82282 0.13882,-1.29983l0.93793,0c-0.05058,0.47702 -0.10255,0.91054 -0.15626,1.29983l4.67254,0c-0.07743,1.43576 -0.15068,2.44235 -0.22009,3.02086c-0.12348,1.13056 -0.77225,1.70037 -1.94561,1.70907c-0.45553,0.00761 -1.13884,-0.00834 -2.04991,-0.04821c-0.04639,-0.29723 -0.10429,-0.62998 -0.1737,-0.9997c0.88805,0.08083 1.62123,0.12469 2.20094,0.1323c0.65644,-0.01559 1.0192,-0.36102 1.08861,-1.0345c0.06906,-0.60171 0.11964,-1.24401 0.15068,-1.92619l-3.86228,0c-0.40914,1.92981 -1.84725,3.33041 -4.31398,4.20035c-0.17754,-0.26424 -0.36694,-0.5332 -0.5675,-0.80651c2.21628,-0.74633 3.52847,-1.87762 3.93762,-3.39385l-3.20793,0l0,-0.85363zm7.7828,-5.00686l-5.17098,0c0.62156,0.77388 1.42067,1.4122 2.39731,1.9135c1.11547,-0.54117 2.04049,-1.17913 2.77367,-1.9135z"/>
    </g>
    <g stroke="null" id="svg_75">
     <path stroke="null" id="svg_76" d="m225.08577,109.2252l-4.30246,10.86698l-1.05966,0l4.30246,-10.86698l1.05966,0z"/>
    </g>
    <g stroke="null" id="svg_77">
     <path stroke="null" id="svg_78" d="m231.42977,116.89153c0.77922,-1.15557 1.40148,-2.49564 1.86469,-4.01984l-1.71401,0l0,-0.85435l1.82981,0l0,-1.88958c-0.49425,0.03951 -1.02338,0.08083 -1.5867,0.12034c-0.03837,-0.27331 -0.09627,-0.56582 -0.1737,-0.87864c1.57519,-0.08844 2.94946,-0.22002 4.12248,-0.39727l0.20893,0.91452c-0.47856,0.05582 -1.05059,0.112 -1.71401,0.16855l0,1.96171l1.60972,0l0,0.85363l-1.60972,0l0,1.54052l0.38229,-0.44548c0.5096,0.41685 1.01536,0.85435 1.51729,1.31179l-0.61389,0.71009c-0.3938,-0.38531 -0.82178,-0.79781 -1.28568,-1.23966l0,5.45198l-0.857,0l0,-5.30771c-0.41682,1.13926 -0.94176,2.1502 -1.57554,3.03282c-0.12348,-0.34399 -0.25811,-0.6887 -0.40496,-1.03341zm4.06458,0.30085c1.23545,-0.93881 2.24349,-2.0545 3.02271,-3.34564c-0.71016,0.36102 -1.50194,0.68943 -2.37429,0.98702c-0.12348,-0.24866 -0.26683,-0.51761 -0.42868,-0.80651c1.14267,-0.34471 2.16187,-0.77787 3.05794,-1.29983c-0.33206,-0.3371 -0.76806,-0.73401 -1.3087,-1.19145l0.53227,-0.60171c0.56366,0.45744 1.06175,0.88697 1.49392,1.28787c0.71818,-0.47303 1.38962,-1.15122 2.01503,-2.03312l-3.46325,0c-0.44751,0.64992 -1.05373,1.31542 -1.8183,1.99796c-0.16219,-0.21676 -0.35124,-0.44186 -0.5675,-0.67384c1.11198,-0.93881 1.96515,-2.03058 2.5595,-3.2735l0.82212,0.32478c-0.13115,0.26461 -0.27416,0.52124 -0.42868,0.77026l3.86856,0l0,0.86668c-0.66377,1.33934 -1.83818,2.47932 -3.52115,3.41813l0.61424,0.21676c-0.12348,0.20879 -0.25149,0.41358 -0.38264,0.61367l3.67113,0l0,0.87864c-1.02687,2.44743 -3.36628,4.11263 -7.01823,4.99453c-0.13882,-0.3052 -0.27799,-0.56908 -0.41682,-0.79418c1.22813,-0.27258 2.39347,-0.69813 3.49743,-1.27591c-0.33206,-0.37661 -0.72969,-0.79092 -1.1929,-1.23966l0.55599,-0.57778c0.50158,0.46505 0.9613,0.91452 1.37811,1.34804c0.98118,-0.72205 1.72936,-1.54813 2.24663,-2.47932l-3.32373,0c-0.71016,0.95439 -1.56333,1.83702 -2.5595,2.64787c-0.1451,-0.22655 -0.32229,-0.47919 -0.53122,-0.75975z"/>
    </g>
    <g stroke="null" id="svg_79">
     <path stroke="null" id="svg_80" d="m246.08152,108.804l9.27672,0l0,4.39283l-0.91491,0l0,-0.52957l-2.59997,0c0.06557,0.79019 0.16429,1.51224 0.29543,2.16651l4.12283,0l0,0.86668l-3.91495,0c0.3938,1.40459 0.98083,2.43546 1.7604,3.09299c0.38543,0.3284 0.68714,0.26461 0.9034,-0.19247c0.18521,-0.39292 0.32439,-1.07546 0.41682,-2.04617c0.35543,0.15985 0.65226,0.27693 0.89189,0.34906c-0.13115,0.90619 -0.28951,1.61627 -0.47472,2.13026c-0.25428,0.68181 -0.63656,1.0229 -1.14616,1.0229c-0.46321,0 -0.91909,-0.20444 -1.36695,-0.61367c-0.84933,-0.75467 -1.48973,-2.00122 -1.92259,-3.74291l-4.4242,0l0,3.1412c0.88805,-0.28889 1.83365,-0.65427 2.8375,-1.09503c-0.03104,0.36972 -0.03488,0.72205 -0.01151,1.05915c-1.2508,0.44186 -2.28918,0.83478 -3.11549,1.17949c-0.09313,0.04893 -0.23544,0.12469 -0.42868,0.22872l-0.5096,-0.88987c0.21626,-0.16058 0.32473,-0.38567 0.32473,-0.67384l0,-9.84625l0,0zm8.36147,0.86631l-7.45842,0l0,2.13026l7.45842,0l0,-2.13026zm-3.52673,2.99694l-3.93134,0l0,2.16651l4.23829,0c-0.12696,-0.66224 -0.22916,-1.38429 -0.30695,-2.16651z"/>
    </g>
    <g stroke="null" id="svg_81">
     <path stroke="null" id="svg_82" d="m265.68172,109.2252l-4.30246,10.86698l-1.05966,0l4.30246,-10.86698l1.05966,0z"/>
    </g>
    <g stroke="null" id="svg_83">
     <path stroke="null" id="svg_84" d="m271.81748,110.16401l2.2414,0c-0.22777,-0.48572 -0.49634,-0.98702 -0.80538,-1.50427l0.70632,-0.4212c0.3938,0.60171 0.69481,1.10301 0.9034,1.50427l-0.72969,0.4212l2.36208,0l0,0.84239l-2.71542,0c-0.00419,0.62599 -0.0136,1.20704 -0.02895,1.74459l2.24628,0c-0.06174,2.13461 -0.12731,3.93212 -0.19638,5.3918c-0.05406,1.09177 -0.54483,1.63766 -1.47124,1.63766c-0.20021,0 -0.55599,-0.00834 -1.06559,-0.02392c-0.04639,-0.3371 -0.11197,-0.65825 -0.19672,-0.96273c0.42519,0.05582 0.80329,0.08409 1.13535,0.08409c0.45553,0 0.70597,-0.30085 0.75236,-0.90256c0.06941,-1.05915 0.12731,-2.51956 0.1737,-4.38086l-1.40148,0c-0.03104,3.02449 -0.55215,5.19933 -1.56333,6.52309c-0.16952,-0.27331 -0.35124,-0.54154 -0.54448,-0.80651c0.58703,-0.97904 0.94176,-1.96606 1.06559,-2.96141c0.15103,-0.93011 0.2337,-2.71131 0.24904,-5.34287l-1.11756,0l0.0007,-0.84275l0,0zm4.10016,1.97367c0.83398,-1.14759 1.50891,-2.44743 2.02688,-3.90022l0.86852,0.31282c-0.14685,0.36537 -0.29892,0.72205 -0.45798,1.07111l4.52256,0l0,0.84239l-4.92787,0c-0.3938,0.77461 -0.82387,1.50427 -1.29091,2.19043c-0.20091,-0.16746 -0.44821,-0.34036 -0.7412,-0.51653zm6.5198,1.74495l0.52111,0.7583c-0.62156,0.38531 -1.37253,0.81629 -2.25256,1.29331c0.57901,1.28787 1.4266,2.23284 2.54206,2.83455c-0.23963,0.2965 -0.45553,0.59736 -0.64842,0.90184c-1.97666,-1.33608 -3.14061,-3.57182 -3.49185,-6.7094c-0.38229,0.05582 -0.76632,0.1062 -1.15244,0.15006l0,5.45198c0.53227,-0.20806 1.21976,-0.50565 2.06142,-0.8906c0,0.3371 0.01535,0.64194 0.04639,0.91452c-0.81061,0.3371 -1.54414,0.65427 -2.20094,0.95077c-0.24695,0.12832 -0.4517,0.27331 -0.61389,0.43316l-0.54448,-0.7583c0.26265,-0.20879 0.3938,-0.54589 0.3938,-1.01094l0,-5.87317c1.42834,-0.08844 3.10747,-0.37299 5.03739,-0.85435l0.44054,0.87864c-0.86852,0.18486 -1.7604,0.34906 -2.67531,0.49333c0.10813,0.86994 0.28183,1.65651 0.52111,2.35898c0.7269,-0.43207 1.39904,-0.87356 2.01607,-1.32267z"/>
    </g>
    <g stroke="null" id="svg_85">
     <path stroke="null" id="svg_86" d="m286.89651,111.58418c0.70283,0.52124 1.31638,1.01094 1.84132,1.46838c-0.25462,0.30448 -0.46321,0.5535 -0.6254,0.74633c-0.64842,-0.61729 -1.23127,-1.13998 -1.74924,-1.56444l0.53332,-0.65028zm0.90305,3.47794c0.28567,0.12832 0.58285,0.24938 0.89223,0.36102c-0.34008,1.46838 -0.68749,3.00455 -1.04222,4.60959l-0.9613,-0.32478c0.46321,-1.54921 0.83329,-3.09734 1.11128,-4.64583zm-0.43984,-6.52309c0.50158,0.40053 1.05757,0.8906 1.66762,1.46838c-0.05406,0.05582 -0.26997,0.28889 -0.64842,0.69813c-0.5096,-0.53719 -1.03908,-1.0548 -1.5867,-1.55248l0.5675,-0.61403zm1.50543,1.99796l4.16922,0l0,0.81847l-2.37429,0c-0.00384,0.66188 -0.0136,1.27156 -0.02895,1.82941l2.13676,0c-0.05406,2.31077 -0.1158,4.02745 -0.18521,5.15112c-0.05406,0.94642 -0.49007,1.42017 -1.3087,1.42017c-0.32439,0 -0.66377,-0.00435 -1.0192,-0.01196c-0.04639,-0.26461 -0.10813,-0.56908 -0.18521,-0.91452c0.33206,0.03951 0.66795,0.06017 1.00804,0.06017c0.41647,0 0.64493,-0.24068 0.6833,-0.72205c0.06174,-0.85798 0.1158,-2.25423 0.16219,-4.18839l-1.32021,0c-0.03837,2.86427 -0.60238,4.9224 -1.69099,6.17402c-0.22428,-0.27331 -0.42868,-0.51399 -0.61424,-0.72205c0.64075,-0.80288 1.05059,-1.74169 1.22813,-2.81642c0.18521,-0.92685 0.28532,-2.6805 0.30102,-5.2595l-0.96165,0l0,-0.81847l0,0zm1.15802,-1.84137l0.75271,-0.43316c0.34741,0.52957 0.66795,1.07474 0.9613,1.63693l-0.76387,0.43316c-0.28602,-0.55386 -0.60273,-1.09975 -0.95013,-1.63693zm2.98818,6.30633l2.13048,0l0,-0.63795l1.37811,-1.50427l-2.84901,0l0,-0.69813c-0.16219,0.28454 -0.3359,0.56147 -0.52111,0.83043c-0.16952,-0.20879 -0.37078,-0.43316 -0.60238,-0.67384c0.82596,-1.219 1.36277,-2.56704 1.60972,-4.04376l0.86817,0.14426c-0.1158,0.57778 -0.26265,1.13128 -0.44019,1.66086l3.31222,0l0,0.81847l-3.61323,0c-0.16603,0.39727 -0.3495,0.77787 -0.55006,1.14324l3.83961,0l0,0.87864l-1.59821,1.67282l0,0.40923l2.00317,0l0,0.81847l-2.00317,0l0,2.79214c0,0.85109 -0.41682,1.27591 -1.2508,1.27591c-0.36275,0 -0.76108,-0.00362 -1.19325,-0.01196c-0.03104,-0.26461 -0.07743,-0.56908 -0.13847,-0.91452c0.49425,0.04893 0.9034,0.07213 1.22778,0.07213c0.34741,0 0.52111,-0.20045 0.52111,-0.60171l0,-2.61163l-2.13048,0l0,-0.81883l0,0z"/>
    </g>
   </g>
   <g stroke="null" id="svg_87">
    <path stroke="null" id="svg_88" d="m73.03016,94.21943c0,0 -7.55748,-11.35777 -3.48801,-23.8026c4.06947,-12.44519 12.4407,-22.83588 12.4407,-22.83588c-0.3488,0 -19.30023,-0.1207 -19.30023,-0.1207s-8.13858,14.1365 -6.51108,28.15229c1.62751,14.01579 16.85862,18.60689 16.85862,18.60689z" fill="#EED44A"/>
    <path stroke="null" id="svg_89" d="m73.61161,70.77894c-6.27842,10.99493 -0.58145,19.3322 -0.58145,19.3322s1.42869,-7.00445 9.65029,-12.92837c8.72003,-6.28277 28.35023,-1.93308 28.35023,-1.93308l-10.21256,-18.36548c0,0 -20.92808,2.89979 -27.20651,13.89473z" fill="#E23723"/>
    <path stroke="null" id="svg_90" d="m47.68416,76.57889l-9.18534,17.63981c0,0 8.95268,11.47883 26.74155,12.44519c17.78887,0.96708 27.09036,-14.1365 27.09036,-14.1365s-12.4407,4.10828 -23.60234,1.81237c-11.16164,-2.29519 -21.04423,-17.76088 -21.04423,-17.76088z" fill="#E23723"/>
    <g stroke="null" id="svg_91">
     <path stroke="null" id="svg_92" d="m75.24749,90.59903l-0.04395,0.2164l0.70004,1.86312c0.0593,0 0.1172,0.0029 0.17684,0.0029c1.32649,0 2.62822,-0.06271 3.88007,-0.1671l-2.50893,-6.67786c-1.75935,2.71457 -2.1964,4.72811 -2.20408,4.76255z" fill="#B7B5B5"/>
     <path stroke="null" id="svg_93" d="m83.72092,49.09356c-0.02058,0.02537 -0.55948,0.70139 -1.41369,1.88813c1.51171,2.10235 3.0255,4.50411 4.49012,7.2513c1.25882,-0.4955 2.50195,-0.93156 3.69625,-1.31288c-1.82667,-3.52361 -3.74648,-6.5597 -5.68825,-9.1735l-1.08442,1.34695z" fill="#B7B5B5"/>
     <path stroke="null" id="svg_94" d="m73.26281,30.35762c-24.92848,0 -45.20919,21.07607 -45.20919,46.98174c0,25.90495 20.28106,46.98029 45.20919,46.98029c24.92883,0 45.20919,-21.07534 45.20919,-46.98065c0,-25.90567 -20.28071,-46.98138 -45.20919,-46.98138zm23.95742,82.01451c1.15383,-2.51448 2.18001,-5.61654 2.79529,-9.37975c1.27905,-7.82546 0.54378,-16.82714 -2.17896,-26.84883c-0.22672,-0.0029 -0.45414,-0.00471 -0.6826,-0.00471c-1.14721,0 -2.24175,0.03987 -3.28292,0.11635c1.23824,4.37071 2.08862,8.52866 2.53683,12.45353l1.21139,-0.39981l-1.07849,1.75111c0.40461,4.39065 0.30869,8.48915 -0.30834,12.26432c-1.2808,7.83851 -4.49152,12.32847 -6.46503,14.43372c-0.19882,0.09026 -0.39798,0.17979 -0.59819,0.26678l-4.97461,-13.23973c-1.04606,0.6916 -2.17338,1.3542 -3.38093,1.9628l4.75033,12.64346c-0.52216,0.16964 -1.04989,0.3255 -1.58042,0.47375c-4.89961,-0.60968 -10.83761,-4.2047 -16.2946,-9.81073c-0.27102,0.00725 -0.54448,0.01051 -0.81968,0.01051c-0.57762,0 -1.16639,-0.01631 -1.74889,-0.04821c-1.01083,-0.05473 -1.98956,-0.14716 -2.94633,-0.26279c4.31014,5.14641 9.03605,9.08578 13.63081,11.49442c-0.84131,0.05292 -1.68855,0.08337 -2.54276,0.08337c-22.81266,0 -41.37238,-19.28689 -41.37238,-42.99307c0,-13.84942 6.33598,-26.1884 16.1516,-34.05699c-2.02514,6.10552 -3.9432,16.38202 -1.5281,30.59283l0.97176,-1.86565l2.08688,3.26626c0.02267,0.03516 0.59192,0.9138 1.58251,2.25278c-0.04744,-0.20951 -0.10045,-0.41721 -0.1458,-0.62708c-4.78869,-22.15878 1.56577,-35.14478 2.90935,-37.55704c0.53541,-0.29578 1.07745,-0.58032 1.62646,-0.85181l3.87344,10.30913c0.71818,-1.49412 1.23615,-2.40864 1.31812,-2.55109l0.66482,-1.15448l0.74504,0.00435l-3.06352,-8.15386c1.17197,-0.44548 2.36906,-0.83587 3.58742,-1.17115c1.19395,0.28925 5.16505,1.45968 10.01862,5.13191c1.46706,1.11026 3.09945,2.52028 4.81137,4.29025c2.5602,0.01595 4.36804,0.02719 4.4828,0.02719l0.83887,0.00036c-4.59825,-5.51251 -9.17627,-8.80414 -12.78566,-10.75026c1.06489,-0.08591 2.14094,-0.13013 3.22641,-0.13013c22.70906,0 41.20042,19.11254 41.36854,42.67119c0.0007,0.10802 0.00384,0.21531 0.00384,0.32369c0,0.37262 -0.00453,0.74452 -0.01395,1.11497c-0.34322,13.97846 -7.13927,26.31853 -17.4003,33.91817z" fill="#B7B5B5"/>
    </g>
   </g>
   <g stroke="null" id="svg_96">
    <g stroke="null" id="svg_26">
     <g stroke="null" id="svg_27">
      <path stroke="null" id="svg_28" d="m144.05288,97.73313l-2.92993,-5.40522l1.49461,0l1.46497,2.8621c0.27869,0.51834 0.49844,0.98955 0.85038,1.62896l0.0586,0c0.29299,-0.6394 0.49809,-1.11062 0.76213,-1.62896l1.43602,-2.8621l1.42137,0l-2.93028,5.4817l3.13538,5.69483l-1.49461,0l-1.58251,-3.01506c-0.27834,-0.56365 -0.57134,-1.12621 -0.92293,-1.79678l-0.0586,0c-0.30764,0.67058 -0.58634,1.23314 -0.86468,1.79678l-1.55321,3.01506l-1.42102,0l3.13433,-5.77132z"/>
     </g>
     <g stroke="null" id="svg_29">
      <path stroke="null" id="svg_30" d="m152.24134,92.60159c0,-0.5332 0.36624,-0.89857 0.89398,-0.89857c0.52809,0 0.89398,0.36537 0.89398,0.89857c0,0.56365 -0.36624,0.92938 -0.89398,0.92938c-0.52774,0.00036 -0.89398,-0.36574 -0.89398,-0.92938zm0.22009,2.63446l1.33347,0l0,8.2684l-1.33347,0l0,-8.2684z"/>
     </g>
     <g stroke="null" id="svg_31">
      <path stroke="null" id="svg_32" d="m157.73497,106.89975l0.26369,-1.11135c0.16115,0.0609 0.39554,0.13665 0.60064,0.13665c0.90828,0 1.47996,-0.7612 1.80226,-1.7812l0.1758,-0.62454l-3.19397,-8.28326l1.39172,0l1.62646,4.59835c0.23439,0.71589 0.51309,1.56879 0.76213,2.31512l0.07325,0c0.21974,-0.74633 0.45414,-1.58365 0.67388,-2.31512l1.42137,-4.59835l1.30382,0l-3.00388,8.95275c-0.54204,1.62896 -1.37707,2.87768 -2.95958,2.87768c-0.38089,0.00109 -0.68853,-0.05981 -0.93758,-0.16674z"/>
     </g>
     <g stroke="null" id="svg_33">
      <path stroke="null" id="svg_34" d="m167.56489,99.37768c0,-2.75625 1.74366,-4.35549 3.69241,-4.35549s3.69241,1.59924 3.69241,4.35549c0,2.74139 -1.74366,4.32432 -3.69241,4.32432s-3.69241,-1.58329 -3.69241,-4.32432zm6.00775,0c0,-1.90299 -0.93758,-3.19775 -2.31534,-3.19775s-2.30069,1.29476 -2.30069,3.19775c0,1.90371 0.92293,3.16658 2.30069,3.16658c1.37707,0.00072 2.31534,-1.26286 2.31534,-3.16658z"/>
     </g>
     <g stroke="null" id="svg_35">
      <path stroke="null" id="svg_36" d="m178.99127,100.47416l0,-5.23812l1.33382,0l0,5.07029c0,1.53762 0.43949,2.19261 1.49392,2.19261c0.82108,0 1.39242,-0.41068 2.1542,-1.40024l0,-5.86266l1.33312,0l0,8.2684l-1.11303,0l-0.1029,-1.29403l-0.0436,0c-0.74748,0.89894 -1.53891,1.49231 -2.63798,1.49231c-1.67041,-0.00072 -2.41754,-1.12729 -2.41754,-3.22856z"/>
     </g>
    </g>
    <g stroke="null" id="svg_95">
     <g stroke="null" id="svg_38">
      <path stroke="null" id="svg_39" d="m199.49475,94.16893l1.36242,0l0,11.17653l-1.36242,0l0,-11.17653z"/>
     </g>
     <g stroke="null" id="svg_40">
      <path stroke="null" id="svg_41" d="m205.28136,97.07707l1.09872,0l0.1172,1.18783l0.0443,0c0.76213,-0.77678 1.58216,-1.40096 2.66694,-1.40096c1.67041,0 2.43219,1.12621 2.43219,3.24306l0,5.23812l-1.33382,0l0,-5.05543c0,-1.5532 -0.45414,-2.20747 -1.50891,-2.20747c-0.82073,0 -1.37707,0.42627 -2.1835,1.26359l0,5.99931l-1.33312,0l0,-8.26804z"/>
     </g>
     <g stroke="null" id="svg_42">
      <path stroke="null" id="svg_43" d="m216.07781,102.78748l0,-4.58349l-1.18627,0l0,-1.05045l1.24487,-0.07648l0.1615,-2.32998l1.11337,0l0,2.32998l2.15385,0l0,1.12693l-2.15385,0l0,4.61393c0,1.01964 0.30764,1.59851 1.23057,1.59851c0.27869,0 0.64528,-0.10693 0.90828,-0.21313l0.26369,1.03486c-0.45449,0.15224 -0.98118,0.30448 -1.46531,0.30448c-1.69866,0.00036 -2.2707,-1.11135 -2.2707,-2.75517z"/>
     </g>
     <g stroke="null" id="svg_44">
      <path stroke="null" id="svg_45" d="m222.15777,101.2187c0,-2.6805 1.74401,-4.35549 3.59021,-4.35549c2.022,0 3.16398,1.52275 3.16398,3.88319c0,0.3052 -0.0293,0.5941 -0.0586,0.79237l-5.36282,0c0.0879,1.76634 1.12802,2.89254 2.63798,2.89254c0.77678,0 1.40672,-0.24358 1.9927,-0.65499l0.48379,0.91344c-0.70388,0.47303 -1.55321,0.85326 -2.63798,0.85326c-2.1099,0 -3.80926,-1.59887 -3.80926,-4.32432zm5.58291,-0.68544c0,-1.65941 -0.73353,-2.55798 -1.9784,-2.55798c-1.12802,0 -2.12525,0.94388 -2.28604,2.55798l4.26445,0z"/>
     </g>
     <g stroke="null" id="svg_46">
      <path stroke="null" id="svg_47" d="m232.48508,97.07707l1.09942,0l0.1172,1.50717l0.0436,0c0.55669,-1.04973 1.36242,-1.7203 2.2564,-1.7203c0.35229,0 0.60098,0.04531 0.85038,0.18269l-0.24974,1.21828c-0.26369,-0.10693 -0.45449,-0.13738 -0.77678,-0.13738c-0.65958,0 -1.47962,0.48717 -2.007,1.90371l0,5.31387l-1.33382,0l0,-8.26804l0.00035,0z"/>
     </g>
     <g stroke="null" id="svg_48">
      <path stroke="null" id="svg_49" d="m239.77991,97.07707l1.09942,0l0.1172,1.18783l0.0436,0c0.76248,-0.77678 1.58251,-1.40096 2.66694,-1.40096c1.66971,0 2.43254,1.12621 2.43254,3.24306l0,5.23812l-1.33312,0l0,-5.05543c0,-1.5532 -0.45449,-2.20747 -1.50961,-2.20747c-0.82038,0 -1.37672,0.42627 -2.1828,1.26359l0,5.99931l-1.33382,0l0,-8.26804l-0.00035,0z"/>
     </g>
     <g stroke="null" id="svg_50">
      <path stroke="null" id="svg_51" d="m249.84527,103.19817c0,-1.79678 1.50857,-2.69536 4.89299,-3.09082c0,-1.06531 -0.33659,-2.0864 -1.64111,-2.0864c-0.92293,0 -1.75831,0.44186 -2.38789,0.88371l-0.52809,-0.95911c0.73318,-0.48717 1.8612,-1.0809 3.13538,-1.0809c1.93445,0 2.75483,1.35565 2.75483,3.39602l0,5.08515l-1.09942,0l-0.1172,-0.98955l-0.0436,0c-0.76248,0.65572 -1.65611,1.18783 -2.63798,1.18783c-1.33242,-0.00109 -2.3279,-0.85363 -2.3279,-2.34593zm4.89299,0.13738l0,-2.3144c-2.68158,0.33493 -3.58951,1.01964 -3.58951,2.08568c0,0.94388 0.61563,1.32448 1.40672,1.32448c0.77713,0 1.40637,-0.38024 2.1828,-1.09576z"/>
     </g>
     <g stroke="null" id="svg_52">
      <path stroke="null" id="svg_53" d="m260.23118,102.78748l0,-4.58349l-1.18627,0l0,-1.05045l1.24487,-0.07648l0.1615,-2.32998l1.11303,0l0,2.32998l2.1542,0l0,1.12693l-2.1542,0l0,4.61393c0,1.01964 0.30799,1.59851 1.23092,1.59851c0.27869,0 0.64458,-0.10693 0.90828,-0.21313l0.26439,1.03486c-0.45449,0.15224 -0.98118,0.30448 -1.46497,0.30448c-1.69971,0.00036 -2.27174,-1.11135 -2.27174,-2.75517z"/>
     </g>
     <g stroke="null" id="svg_54">
      <path stroke="null" id="svg_55" d="m266.91177,94.4426c0,-0.5332 0.36659,-0.89857 0.89398,-0.89857c0.52774,0 0.89398,0.36537 0.89398,0.89857c0,0.56365 -0.36659,0.92938 -0.89398,0.92938c-0.52739,0.00036 -0.89398,-0.36574 -0.89398,-0.92938zm0.2194,2.63446l1.33382,0l0,8.2684l-1.33382,0l0,-8.2684z"/>
     </g>
     <g stroke="null" id="svg_56">
      <path stroke="null" id="svg_57" d="m272.171,101.2187c0,-2.75625 1.74331,-4.35549 3.69241,-4.35549c1.9484,0 3.69241,1.59924 3.69241,4.35549c0,2.74139 -1.74401,4.32432 -3.69241,4.32432c-1.9491,0 -3.69241,-1.58329 -3.69241,-4.32432zm6.00706,0c0,-1.90299 -0.93758,-3.19775 -2.31499,-3.19775c-1.37742,0 -2.30104,1.29476 -2.30104,3.19775c0,1.90371 0.92293,3.16658 2.30104,3.16658c1.37742,0.00072 2.31499,-1.26286 2.31499,-3.16658z"/>
     </g>
     <g stroke="null" id="svg_58">
      <path stroke="null" id="svg_59" d="m283.26044,97.07707l1.09838,0l0.11755,1.18783l0.0443,0c0.76178,-0.77678 1.58147,-1.40096 2.66659,-1.40096c1.67041,0 2.43219,1.12621 2.43219,3.24306l0,5.23812l-1.33277,0l0,-5.05543c0,-1.5532 -0.45484,-2.20747 -1.50891,-2.20747c-0.82108,0 -1.37742,0.42627 -2.1835,1.26359l0,5.99931l-1.33312,0l-0.0007,-8.26804l0,0z"/>
     </g>
     <g stroke="null" id="svg_60">
      <path stroke="null" id="svg_61" d="m293.32441,103.19817c0,-1.79678 1.50961,-2.69536 4.89403,-3.09082c0,-1.06531 -0.33729,-2.0864 -1.64111,-2.0864c-0.92293,0 -1.75831,0.44186 -2.38859,0.88371l-0.52774,-0.95911c0.73283,-0.48717 1.86051,-1.0809 3.13572,-1.0809c1.9341,0 2.75414,1.35565 2.75414,3.39602l0,5.08515l-1.09872,0l-0.1172,-0.98955l-0.0443,0c-0.76178,0.65572 -1.65541,1.18783 -2.63729,1.18783c-1.33207,-0.00109 -2.32895,-0.85363 -2.32895,-2.34593zm4.89403,0.13738l0,-2.3144c-2.68158,0.33493 -3.59021,1.01964 -3.59021,2.08568c0,0.94388 0.61598,1.32448 1.40672,1.32448c0.77678,0 1.40741,-0.38024 2.1835,-1.09576z"/>
     </g>
     <g stroke="null" id="svg_62">
      <path stroke="null" id="svg_63" d="m303.69671,103.70092l0,-10.47551l1.33312,0l0,10.56685c0,0.42627 0.1758,0.5941 0.38089,0.5941c0.0736,0 0.1322,0 0.27869,-0.03045l0.19079,1.06531c-0.19079,0.07648 -0.41089,0.12179 -0.77678,0.12179c-0.99687,0 -1.40672,-0.66985 -1.40672,-1.84209z"/>
     </g>
    </g>
   </g>
  </g>
 </g>
</svg>